<?xml version="1.0" encoding="UTF-8" standalone="no"?>
<!-- Created with Inkscape (http://www.inkscape.org/) -->

<svg
   xmlns:dc="http://purl.org/dc/elements/1.1/"
   xmlns:cc="http://creativecommons.org/ns#"
   xmlns:rdf="http://www.w3.org/1999/02/22-rdf-syntax-ns#"
   xmlns:svg="http://www.w3.org/2000/svg"
   xmlns="http://www.w3.org/2000/svg"
   xmlns:sodipodi="http://sodipodi.sourceforge.net/DTD/sodipodi-0.dtd"
   xmlns:inkscape="http://www.inkscape.org/namespaces/inkscape"
   width="1000"
   height="1000"
   viewBox="0 0 999.99995 1000.0002"
   id="svg2"
   version="1.1"
   inkscape:version="0.91 r13725"
   sodipodi:docname="sago.svg">
  <defs
     id="defs4" />
  <sodipodi:namedview
     id="base"
     pagecolor="#ffffff"
     bordercolor="#666666"
     borderopacity="1.0"
     inkscape:pageopacity="0.0"
     inkscape:pageshadow="2"
     inkscape:zoom="0.49497475"
     inkscape:cx="502.01961"
     inkscape:cy="517.49306"
     inkscape:document-units="px"
     inkscape:current-layer="layer1"
     showgrid="false"
     inkscape:window-width="1600"
     inkscape:window-height="817"
     inkscape:window-x="0"
     inkscape:window-y="27"
     inkscape:window-maximized="1"
     units="px" />
  <metadata
     id="metadata7">
    <rdf:RDF>
      <cc:Work
         rdf:about="">
        <dc:format>image/svg+xml</dc:format>
        <dc:type
           rdf:resource="http://purl.org/dc/dcmitype/StillImage" />
        <dc:title></dc:title>
      </cc:Work>
    </rdf:RDF>
  </metadata>
  <g
     inkscape:label="Calque 1"
     inkscape:groupmode="layer"
     id="layer1"
     transform="translate(0,-52.36196)">
    <g
       id="g4149"
       transform="matrix(4.9725077,0,0,4.9725077,-1309.4894,-3496.1428)"
       style="fill:none;fill-opacity:1;stroke:#000000;stroke-width:1.00000024;stroke-miterlimit:4;stroke-dasharray:none;stroke-opacity:1">
      <path
         style="fill-opacity:1;fill-rule:nonzero;"
         d="m 324.93284,890.33213 c -36.95657,-4.6817 -65.05968,-41.27272 -60.50012,-78.77279 2.19413,-18.04558 9.44871,-31.84059 23.12199,-43.96785 23.61475,-20.94465 56.98744,-24.63272 83.13571,-9.18746 4.29741,2.5384 6.28723,4.26513 6.09073,5.28546 -0.16051,0.83348 -7.46236,5.7296 -16.22633,10.88028 l -15.93448,9.36486 -9.375,0.60759 c -7.34034,0.47571 -10.50165,1.14455 -14.56619,3.08175 -10.65391,5.07774 -17.54176,13.40833 -20.28825,24.53786 -3.88594,15.74694 4.69084,32.86782 20.11247,40.14829 5.54021,2.6155 7.27048,2.97631 14.27322,2.97631 7.00239,0 8.73312,-0.36086 14.27187,-2.97569 8.01683,-3.7847 14.66038,-9.99371 18.08264,-16.89987 2.2109,-4.46161 2.75536,-6.94286 3.08852,-14.07507 0.34706,-7.42991 0.18421,-8.74313 -1.14762,-9.2542 -1.00057,-0.38395 -6.84097,2.4429 -16.43636,7.95549 -16.76895,9.63382 -19.14654,10.22031 -23.55617,5.81069 -3.46601,-3.46602 -3.71465,-8.14775 -0.60648,-11.4196 1.17365,-1.23545 22.69803,-14.05877 47.83195,-28.49627 38.16665,-21.92379 45.78131,-26.63627 46.20319,-28.59375 0.27783,-1.28906 0.83582,-2.97656 1.23999,-3.75 0.7188,-1.37557 12.92992,-8.98348 21.99284,-13.70223 l 4.5581,-2.37326 -0.67254,8.49746 -0.67256,8.49745 4.55194,1.96032 c 2.50357,1.07818 6.00108,2.56989 7.77225,3.31492 3.20026,1.34617 3.20772,1.36342 1.19688,2.77186 -1.11289,0.7795 -7.14231,4.35777 -13.3987,7.95172 -11.03232,6.33743 -11.48154,6.50261 -14.89948,5.47856 -3.45507,-1.03516 -3.80716,-0.8916 -17.9466,7.31712 -16.53258,9.59806 -15.75038,8.23409 -12.21237,21.29542 4.78486,17.66435 0.77642,39.47405 -10.18246,55.40224 -10.44241,15.17753 -29.50936,26.97747 -48.59873,30.07625 -8.93768,1.45086 -10.69768,1.47307 -20.30385,0.25615 z"
         id="path4157"
         inkscape:connector-curvature="0" />
    </g>
  </g>
</svg>
